<?xml version="1.0" standalone="no"?>
<!DOCTYPE svg PUBLIC "-//W3C//DTD SVG 20010904//EN"
 "http://www.w3.org/TR/2001/REC-SVG-20010904/DTD/svg10.dtd">
<svg version="1.0" xmlns="http://www.w3.org/2000/svg"
 width="512.000000pt" height="512.000000pt" viewBox="0 0 512.000000 512.000000"
 preserveAspectRatio="xMidYMid meet">
<metadata>
Created by potrace 1.13, written by Peter Selinger 2001-2015
</metadata>
<g transform="translate(0.000000,512.000000) scale(0.100000,-0.100000)"
fill="#000000" stroke="none">
<path d="M2475 5067 c-15 -24 -53 -61 -84 -82 -31 -22 -79 -59 -108 -82 -29
-24 -55 -43 -58 -43 -9 0 -55 103 -55 123 0 30 -24 17 -64 -36 -70 -91 -128
-178 -123 -183 2 -3 23 0 46 5 l42 9 34 -74 c19 -41 36 -74 39 -74 3 0 21 9
40 21 45 26 46 12 5 -47 -21 -31 -36 -43 -47 -40 -82 26 -218 33 -271 15 -24
-8 -31 -17 -31 -36 0 -68 68 -250 121 -325 19 -27 20 -32 7 -42 -8 -6 -17 -21
-20 -33 -6 -21 -3 -22 42 -16 44 5 52 2 95 -31 42 -31 90 -57 175 -93 23 -10
21 -11 -25 -17 -27 -4 -111 -19 -185 -32 -226 -42 -220 -42 -220 -30 0 6 7 33
15 60 22 71 11 68 -17 -6 -29 -76 2 -68 -375 -93 -306 -20 -547 -17 -605 8
-21 9 -38 12 -38 7 0 -16 77 -106 126 -147 65 -54 194 -134 291 -180 92 -43
279 -107 343 -118 61 -10 80 -21 52 -29 -12 -4 -22 -12 -22 -17 0 -15 15 -10
64 22 54 36 106 100 132 163 l18 43 86 -1 c86 0 87 0 125 36 42 40 55 40 55 2
0 -87 60 -267 108 -324 14 -16 8 3 -17 53 -37 73 -63 161 -75 250 l-5 38 32
-8 c47 -12 155 -9 204 5 23 7 63 28 88 47 25 19 47 35 50 35 2 0 -25 -43 -60
-95 -36 -52 -79 -123 -95 -156 -42 -82 -90 -209 -80 -209 4 0 13 14 19 32 7
19 15 28 20 22 14 -15 82 -234 76 -245 -4 -5 1 -9 10 -9 10 0 15 6 12 13 -2 6
-12 39 -22 72 -9 33 -30 93 -47 132 l-30 72 59 114 c54 104 137 225 156 226 4
1 7 -14 7 -33 0 -28 -4 -35 -22 -39 l-23 -4 23 -2 c20 -1 22 -6 23 -68 l1 -68
10 60 c10 63 13 94 16 159 l2 38 63 -6 c186 -19 218 -19 283 -1 35 9 67 21 70
26 2 5 -12 2 -33 -5 -21 -7 -60 -16 -86 -20 -50 -8 -177 2 -177 13 0 3 37 16
83 29 45 13 105 33 132 46 46 21 57 22 140 14 171 -17 420 8 634 63 63 16 119
28 125 25 6 -2 2 -7 -9 -10 -11 -4 -51 -21 -90 -38 -125 -54 -232 -88 -307
-97 l-73 -8 65 -2 c78 -1 127 13 279 80 132 59 180 69 201 45 11 -14 11 -22
-2 -49 -22 -46 -101 -87 -190 -98 -64 -8 -73 -7 -102 13 l-31 22 23 -25 c12
-14 22 -28 22 -32 0 -4 20 -36 45 -73 25 -36 45 -59 45 -51 0 9 43 36 103 65
224 110 407 256 515 414 39 57 85 149 78 156 -3 3 -47 -7 -98 -23 -147 -44
-312 -76 -643 -125 -110 -17 -216 -34 -235 -40 -47 -13 -43 -15 -78 30 l-32
39 40 62 c51 78 76 159 90 288 17 154 -9 351 -47 351 -30 0 -181 -121 -277
-221 l-98 -102 -64 64 c-41 40 -84 97 -116 154 -83 147 -234 355 -258 355 -4
0 -20 -19 -35 -43z m865 -252 c32 -97 29 -318 -6 -435 -35 -117 -100 -217
-169 -260 -23 -14 -38 -34 -48 -65 -17 -50 -72 -134 -92 -141 -19 -8 -61 21
-132 90 -62 60 -63 61 -63 116 0 50 -17 137 -25 128 -2 -1 1 -26 7 -55 21
-103 -17 -164 -94 -149 -35 6 -36 7 -42 69 -4 34 -10 78 -13 98 l-5 36 53 6
c30 4 62 8 72 10 10 2 39 42 68 93 103 179 241 335 388 440 42 29 79 54 83 54
3 0 12 -16 18 -35z m-1294 -246 c185 -26 353 -101 502 -227 81 -68 102 -106
109 -195 3 -41 3 -86 -1 -100 -9 -39 -92 -144 -136 -173 l-40 -27 -56 44 c-31
24 -67 58 -81 75 -17 23 -46 41 -94 59 -144 56 -261 159 -323 288 -35 71 -83
233 -72 244 7 7 65 21 93 22 12 1 57 -4 99 -10z m384 -797 c0 -17 -38 -43 -89
-63 -67 -25 -231 -26 -231 0 0 3 42 20 93 37 90 31 227 46 227 26z m-955 -108
c-26 -13 -26 -14 -5 -9 14 3 67 8 118 12 l92 6 0 -41 0 -41 -56 -7 c-120 -15
-283 26 -204 51 11 4 18 11 15 16 -11 17 6 29 38 28 l32 -1 -30 -14z"/>
<path d="M2979 3802 c19 -13 2 -59 -44 -122 -49 -67 -122 -126 -213 -172 -88
-44 -77 -52 13 -9 79 37 159 104 215 179 25 34 48 61 53 62 11 0 7 -167 -6
-243 -11 -60 -16 -70 -45 -87 -19 -12 -32 -28 -32 -40 0 -12 4 -18 10 -15 6 4
8 -15 4 -53 -6 -52 -4 -62 15 -81 11 -11 28 -21 37 -21 21 0 54 19 54 31 0 5
-11 2 -24 -6 -19 -13 -29 -14 -45 -5 -36 19 -26 40 18 40 22 0 42 4 46 10 3 5
12 7 20 4 26 -10 33 76 10 129 -6 15 -1 17 50 17 l58 0 -7 -51 c-4 -28 -16
-73 -26 -100 -25 -62 -25 -59 6 -59 23 0 25 -3 20 -25 -7 -28 2 -75 14 -75 5
0 6 15 3 34 -7 43 9 72 44 80 16 4 45 19 66 32 22 14 40 24 42 22 5 -5 62
-180 69 -210 6 -26 4 -27 -41 -33 -45 -6 -117 -35 -108 -43 2 -2 12 1 23 7 10
5 72 19 138 30 271 47 397 107 366 176 -14 30 -81 69 -157 90 -33 10 -64 22
-70 28 -7 7 -5 8 5 5 8 -3 53 -18 100 -33 96 -32 151 -64 170 -101 12 -21 11
-28 -6 -52 -65 -89 -380 -170 -790 -201 -177 -14 -680 -14 -850 -1 -479 38
-804 131 -804 230 0 29 36 68 85 93 41 20 226 79 232 73 7 -7 -27 -22 -97 -41
-186 -50 -220 -123 -87 -186 119 -55 301 -90 622 -120 65 -6 127 -15 136 -20
10 -5 37 -8 61 -8 l43 1 -53 8 c-29 4 -59 13 -67 20 -30 25 -13 80 33 104 15
9 22 15 15 16 -23 0 -65 -46 -72 -80 -6 -30 -11 -35 -32 -32 -33 4 -84 63
-125 147 -42 86 -61 161 -72 285 -7 67 -10 80 -11 44 -1 -41 -6 -55 -28 -77
-66 -62 -182 -75 -288 -32 -50 20 -56 21 -35 5 29 -22 29 -23 -30 -39 -97 -28
-190 -73 -220 -107 l-30 -35 -1 -137 c0 -75 0 -188 1 -251 l2 -114 -24 6 c-13
3 -42 9 -66 13 -43 7 -44 6 -100 -52 -96 -99 -171 -269 -209 -478 -26 -138
-23 -419 6 -553 53 -252 148 -425 274 -499 46 -27 68 -34 89 -30 l29 6 -3
-113 -3 -112 -93 -3 c-87 -3 -96 -1 -158 30 -87 43 -184 125 -241 201 -169
230 -264 659 -219 992 41 307 126 508 272 646 98 92 197 138 352 164 74 12 75
13 27 14 -28 1 -84 -8 -125 -20 -307 -85 -479 -334 -545 -790 -28 -194 -16
-371 41 -598 49 -196 127 -365 215 -465 49 -56 140 -122 229 -166 62 -31 68
-32 157 -28 l93 5 0 -248 0 -247 33 -28 c90 -76 286 -129 627 -170 181 -22
773 -30 981 -15 320 24 593 76 730 137 66 30 119 82 119 117 0 14 12 32 31 46
36 27 36 32 -5 213 -16 74 -26 147 -26 198 l0 80 -50 -36 c-28 -20 -49 -39
-46 -42 3 -2 21 7 40 22 19 14 37 26 40 26 3 0 6 -114 6 -252 0 -327 2 -323
-199 -388 -532 -170 -1767 -153 -2157 29 -35 16 -75 41 -89 55 l-25 25 0 1371
c0 779 4 1370 9 1370 5 0 14 -6 20 -14 18 -21 140 -73 226 -96 625 -162 1870
-115 2163 81 24 16 45 29 48 29 2 0 4 -415 4 -921 0 -507 2 -924 5 -927 3 -3
5 4 5 14 0 11 5 25 12 32 9 9 9 12 0 12 -7 0 -12 9 -12 20 0 26 17 26 25 1 3
-12 17 -21 33 -23 21 -2 28 -9 30 -31 3 -28 4 -28 23 -11 18 17 20 17 34 -2 8
-11 15 -14 15 -6 0 23 20 12 20 -12 0 -55 33 -73 76 -41 26 20 43 19 39 -2
-16 -82 -16 -82 20 -89 43 -8 95 9 125 41 18 19 26 22 37 14 10 -9 13 -6 13
15 0 32 24 44 52 27 12 -8 24 -9 31 -3 7 5 35 17 63 26 28 9 63 29 78 45 26
27 26 28 8 52 -10 13 -30 44 -45 69 -25 44 -26 46 -11 105 9 34 16 115 17 186
2 136 12 165 50 153 14 -4 18 -2 15 7 -3 8 1 26 8 40 7 15 11 29 8 32 -12 11
7 44 32 56 24 11 59 72 52 93 -2 6 -10 -8 -16 -30 -9 -29 -22 -47 -42 -57 -33
-17 -56 -50 -40 -60 10 -6 2 -35 -10 -35 -5 0 -12 15 -15 33 -4 17 -14 45 -22
60 -13 26 -11 33 21 100 42 90 51 116 66 197 14 74 14 240 0 254 -5 5 -72 2
-172 -8 -216 -21 -274 -21 -319 3 -20 11 -64 29 -98 40 -39 13 -85 40 -131 76
l-70 56 0 237 c0 261 0 262 -63 301 -18 11 -80 36 -137 55 l-105 35 -7 88 c-3
48 -14 108 -22 132 -17 47 -12 61 27 61 31 0 18 19 -22 30 -35 9 -42 17 -70
75 -16 36 -33 65 -36 65 -3 0 1 -13 10 -30 64 -123 111 -319 101 -418 -7 -62
-53 -202 -67 -202 -9 0 -99 142 -99 155 0 5 8 18 17 29 10 12 0 4 -22 -16 -42
-39 -129 -83 -185 -94 -37 -8 -37 -14 -1 87 38 105 51 263 32 394 l-7 50 -8
-40 c-13 -70 -54 -144 -113 -207 -36 -38 -46 -54 -28 -41 35 25 72 64 106 113
l24 35 6 -30 c4 -17 7 -53 8 -81 l1 -51 -92 -6 c-51 -3 -94 -4 -96 -2 -1 1 5
42 14 90 16 81 20 89 48 102 l31 14 -34 -7 -34 -6 6 38 c4 22 7 51 7 67 l0 27
78 0 c61 0 82 5 102 20 l25 19 -40 -14 c-61 -22 -142 -18 -220 10 -15 5 -16 4
-6 -3z m-979 -474 c7 -40 19 -92 27 -116 12 -35 12 -57 3 -114 -6 -39 -13 -74
-15 -78 -5 -8 -198 16 -270 34 -57 14 -54 0 -40 172 l8 102 56 -5 c70 -6 127
8 177 46 21 16 40 30 41 30 0 1 7 -32 13 -71z m-304 -45 c-2 -10 -8 -52 -12
-93 -3 -41 -10 -85 -15 -97 -8 -21 -8 -21 -66 -4 -101 31 -153 65 -153 102 0
25 60 62 141 88 83 26 112 27 105 4z m1930 -4 c98 -29 146 -63 142 -97 -4 -37
-96 -83 -223 -112 -101 -23 -125 -22 -125 7 -1 10 -16 58 -35 108 -19 49 -33
90 -32 92 2 1 22 -32 47 -72 24 -41 47 -75 51 -75 15 0 49 54 70 111 12 33 25
59 29 59 4 0 39 -9 76 -21z m-2292 -599 l26 -10 0 -774 c0 -772 0 -775 -21
-786 -31 -17 -113 34 -173 106 -171 207 -244 601 -181 969 32 188 101 353 187
450 46 51 53 55 93 55 24 0 55 -4 69 -10z m3286 -155 c0 -7 -6 -16 -12 -18 -8
-3 -6 -6 5 -6 11 -1 17 -9 17 -26 0 -29 -24 -34 -39 -7 -6 9 -11 13 -11 8 0
-6 10 -20 21 -33 17 -18 19 -25 10 -37 -9 -11 -8 -15 4 -20 20 -7 19 -25 -1
-33 -11 -4 -22 1 -30 12 -8 10 -14 15 -14 10 0 -5 10 -19 21 -32 18 -18 20
-25 9 -38 -9 -11 -9 -15 -1 -15 16 0 10 -42 -7 -48 -6 -2 -17 7 -22 20 -10 22
-10 22 -5 1 3 -13 8 -31 11 -41 4 -14 -2 -22 -26 -32 -23 -9 -29 -17 -24 -29
13 -31 16 -61 6 -61 -5 0 -12 12 -14 28 -3 15 -8 34 -12 43 -5 12 1 20 23 29
17 7 31 16 31 21 0 13 -18 11 -22 -3 -6 -16 -38 -2 -38 17 0 8 9 15 21 15 11
0 17 4 14 10 -4 6 -2 17 4 24 9 10 8 15 -4 20 -20 7 -19 35 3 44 22 9 25 43 5
57 -18 13 -10 35 12 35 8 0 19 -8 24 -17 6 -10 11 -14 11 -9 0 6 -10 20 -21
33 -18 18 -20 25 -9 38 10 12 10 15 -4 15 -9 0 -16 8 -16 19 0 14 8 21 28 23
35 5 52 -1 52 -17z m-451 -630 c24 -41 73 -186 66 -194 -3 -3 -43 7 -88 22
-93 30 -119 33 -111 14 2 -7 -2 -30 -11 -50 -29 -70 -12 -127 35 -112 29 9 25
24 -7 22 -19 -1 -28 3 -31 15 -3 15 3 16 47 11 50 -6 50 -5 67 31 19 38 34 43
74 23 21 -11 24 -18 22 -52 -2 -23 -17 -61 -35 -90 -18 -27 -37 -58 -42 -70
-23 -45 -157 -57 -262 -22 l-38 12 -3 223 c-1 144 1 222 8 222 15 0 36 -59 44
-123 4 -33 12 -57 19 -57 7 0 35 13 63 30 55 31 101 82 130 143 10 20 21 37
25 37 4 0 16 -16 28 -35z"/>
<path d="M2305 3440 c-4 -6 -3 -25 1 -43 7 -31 8 -31 14 -7 5 23 11 25 68 28
62 3 73 -3 50 -26 -7 -7 -12 -39 -13 -71 0 -78 25 -115 81 -119 25 -2 46 3 59
13 l20 17 -20 -8 c-51 -18 -76 -16 -100 6 -32 30 -23 42 25 34 22 -4 55 -3 75
0 33 6 35 9 35 44 0 21 -7 47 -15 59 -21 30 -5 36 33 13 31 -19 32 -19 32 -1
0 26 -17 37 -86 55 -70 18 -249 22 -259 6z"/>
<path d="M3118 3095 c-15 -8 -30 -24 -33 -36 -4 -11 -21 -27 -39 -34 -53 -22
-203 -38 -291 -31 -104 9 -262 41 -282 58 -15 12 -15 11 -4 -9 8 -16 9 -29 2
-42 -11 -20 -38 -34 -51 -26 -5 3 -11 2 -13 -2 -7 -11 319 -6 525 8 91 6 172
8 180 3 7 -4 2 4 -10 18 -27 30 -21 52 25 87 33 24 29 26 -9 6z"/>
</g>
</svg>
